<svg width="225" height="65" viewBox="0 0 225 65" fill="none" xmlns="http://www.w3.org/2000/svg">
<g clip-path="url(#clip0_870_1745)">
<path d="M220.803 1.77271C215.8 -1.94611 207.512 0.394393 198.909 6.86745C198.944 6.84821 198.978 6.82896 199.013 6.81213C198.438 7.23308 197.859 7.6829 197.277 8.15918C196.239 9.0083 194.607 10.6031 194.835 10.4275C200.588 5.98946 207.061 3.1775 209.486 4.66647C214.848 7.95471 212.125 20.4462 204.094 31.5233C196.063 42.6004 185.457 48.5322 180.404 44.7773C179.221 43.8945 178.333 42.9059 178.074 41.3111C178.038 44.2505 179.022 46.2494 180.718 47.5099C185.778 51.272 197.011 44.4814 205.809 32.346C214.61 20.2081 217.641 7.32208 212.582 3.56237C212.57 3.55515 212.558 3.54793 212.548 3.54072C212.997 3.64175 213.411 3.76924 213.764 3.95205C220.465 7.42552 216.61 23.3833 206.833 36.8706C197.054 50.3555 184.115 57.5647 177.934 52.9678C176.651 52.0129 175.779 50.6033 175.262 48.8834C175.551 51.7892 176.59 54.084 178.447 55.4647C184.87 60.2395 198.595 52.3617 209.106 37.864C219.615 23.3688 222.929 7.75025 216.506 2.97303C216.097 2.66995 215.66 2.41737 215.194 2.21532C216.427 2.2947 217.392 2.55689 218 2.99709C225.774 8.64027 222.249 25.6275 210.672 41.5949C199.094 57.5647 183.162 66.2435 175.744 60.1265C174.188 58.842 173.777 57.6513 173.133 55.1472C173.133 59.0777 173.765 61.3436 176.262 63.2006C184.158 69.0723 200.529 60.0808 212.829 43.1127C225.128 26.1495 228.699 7.6396 220.805 1.7679" fill="#3A8DDE"/>
<path d="M191.989 6.04475C191.293 5.62379 190.384 5.37844 189.407 5.46022C187.82 5.59012 186.488 6.509 185.616 7.46156C184.129 9.0275 182.842 10.7739 181.956 12.4288C181.003 14.1511 180.269 15.7772 179.678 17.5235C179.366 18.428 179.15 19.395 178.944 20.0877C178.932 20.1286 186.951 1.30842 194.745 9.6433C194.215 8.53198 193.595 7.6564 192.768 6.69422C192.559 6.45367 192.296 6.23237 191.989 6.04475Z" fill="#3A8DDE"/>
<path d="M32.7733 22.1974V18.6566H30.5547V37.2772H32.7733V29.8106C32.7733 26.7413 33.6688 24.3407 35.4623 22.616C37.2557 20.8888 39.9565 20.0253 43.5671 20.0253V18.238C40.4553 18.238 37.8234 18.7841 35.6689 19.8737C34.4147 20.5088 33.4503 21.2833 32.7733 22.1974Z" fill="white"/>
<path d="M66.6465 34.3643C64.587 35.5958 62.0548 36.2092 59.0452 36.2092C56.0356 36.2092 53.5034 35.5934 51.4439 34.3643C48.9379 32.8945 47.6813 30.732 47.6813 27.8695C47.6813 25.0071 48.9212 22.7941 51.4035 21.2955C53.4345 20.0927 55.9809 19.4914 59.0452 19.4914C62.1094 19.4914 64.6535 20.0927 66.6845 21.2955C69.1382 22.7652 70.3687 24.9566 70.3687 27.8695C70.3687 30.7825 69.1264 32.8681 66.6465 34.3643ZM68.2688 19.934C65.8412 18.3849 62.7769 17.6079 59.0808 17.6079C55.3847 17.6079 52.3656 18.368 49.8595 19.8907C46.876 21.7357 45.3843 24.3961 45.3843 27.8671C45.3843 31.3382 46.8356 33.9481 49.7408 35.7642C52.2207 37.3133 55.2944 38.0903 58.9644 38.0903C62.6344 38.0903 65.7343 37.3278 68.1905 35.8027C71.1716 33.9601 72.6633 31.3117 72.6633 27.8647C72.6633 24.4177 71.1977 21.7717 68.2688 19.9292" fill="white"/>
<path d="M82.3834 13.0376H80.0864V18.9309H74.7798V20.8144H80.0864L80.2076 37.6525H82.3834V20.8144H87.8088V18.9309H82.3834V13.0376Z" fill="white"/>
<path d="M110.872 18.6495C108.974 17.7402 106.636 17.2856 103.864 17.2856C99.2464 17.2856 95.9731 18.4883 94.0467 20.8938V11.272H91.7117V37.6549H94.0467V26.5105C94.0467 24.0762 95.0895 22.2047 97.1751 20.8962C98.9685 19.7752 101.213 19.2124 103.902 19.2124C106.173 19.2124 108.045 19.5876 109.525 20.3333C111.399 21.2955 112.335 22.7387 112.335 24.6631V37.6525H114.67V24.2999C114.67 21.7645 113.401 19.8787 110.869 18.6495" fill="white"/>
<path d="M138.766 34.3258C136.711 35.5814 134.229 36.2068 131.326 36.2068C128.423 36.2068 125.851 35.5525 123.924 34.244C121.756 32.7478 120.677 30.6358 120.677 27.9104C120.677 25.1851 121.756 23.0587 123.924 21.536C125.875 20.1745 128.345 19.4938 131.326 19.4938C134.307 19.4938 136.963 20.0951 138.885 21.2979C141.236 22.7387 142.41 24.9445 142.41 27.9128C142.41 30.6647 141.193 32.8031 138.763 34.3258H138.766ZM142.41 21.8174C140.217 19.0103 136.602 17.6079 131.561 17.6079C127.92 17.6079 124.91 18.4113 122.535 20.0134C119.791 21.8583 118.418 24.4899 118.418 27.9128C118.418 31.3358 119.805 33.8856 122.578 35.7306C124.927 37.3085 127.856 38.0951 131.366 38.0951C136.409 38.0951 140.087 36.6374 142.412 33.7244V37.691H144.747V17.6897H142.412V21.8198L142.41 21.8174Z" fill="white"/>
<path d="M161.107 37.6501H158.772V11.4163H161.107V37.6501ZM150.429 37.6501H152.764V11.4163H150.429V37.6501Z" fill="white"/>
<path d="M19.4379 35.1267C17.6943 35.8508 15.6895 36.2092 13.4186 36.2092C10.4114 36.2092 7.92908 35.6487 5.9765 34.5254C3.52271 33.135 2.29463 31.0231 2.29463 28.1918C2.29463 25.3606 3.49421 23.0201 5.90049 21.4951C7.98371 20.1601 10.6632 19.4889 13.9365 19.4889C18.3119 19.4889 21.2313 20.7758 22.6922 23.3401H25.2101C24.3312 21.204 22.7658 19.6742 20.5092 18.7697C18.635 17.9952 16.4829 17.6055 14.0552 17.6055C10.1762 17.6055 6.98367 18.3945 4.47525 19.9724C1.49175 21.8439 0 24.5813 0 28.1918C0 31.5835 1.46324 34.1646 4.39211 35.9278C6.79364 37.371 9.81752 38.0927 13.459 38.0927C16.0981 38.0927 18.445 37.6789 20.5068 36.8515C23.0081 35.8267 24.6899 34.1092 25.5712 31.711H23.0912C22.3905 33.2553 21.179 34.4003 19.4379 35.1267Z" fill="white"/>
<path d="M48.3297 45.9658C47.705 45.6651 46.9354 45.5136 46.0209 45.5136C44.4982 45.5136 43.4222 45.9105 42.7856 46.7043V43.2693H42.0183V52.2248H42.7856V48.5516C42.7856 47.7506 43.13 47.1348 43.8165 46.7043C44.408 46.3314 45.1491 46.1486 46.0327 46.1486C46.7834 46.1486 47.3986 46.2737 47.8879 46.519C48.5031 46.8366 48.8143 47.3128 48.8143 47.9479V52.2248H49.584V47.8252C49.584 46.9905 49.1659 46.3699 48.3321 45.9658" fill="white"/>
<path d="M75.8014 51.1279C75.122 51.544 74.3073 51.7509 73.3476 51.7509C72.3879 51.7509 71.5447 51.5344 70.9104 51.1038C70.1978 50.6131 69.8415 49.9131 69.8415 49.0159C69.8415 48.1186 70.2002 47.4187 70.9104 46.9135C71.5518 46.4661 72.3642 46.24 73.3476 46.24C74.331 46.24 75.2052 46.4372 75.837 46.8365C76.6114 47.3104 76.9986 48.0369 76.9986 49.0159C76.9986 49.9227 76.5995 50.6275 75.799 51.1279H75.8014ZM76.9986 47.0073C76.2765 46.0836 75.0864 45.6194 73.4236 45.6194C72.224 45.6194 71.2311 45.8816 70.4496 46.4108C69.5446 47.0194 69.0933 47.8853 69.0933 49.0135C69.0933 50.1416 69.547 50.9811 70.4639 51.5897C71.2359 52.1069 72.2027 52.3667 73.3595 52.3667C75.0222 52.3667 76.2337 51.8856 76.9986 50.9258V52.232H77.7682V45.641H76.9986V47.0025V47.0073Z" fill="white"/>
<path d="M85.5215 43.2693H84.7495V52.2248H85.5215V43.2693Z" fill="white"/>
<path d="M94.2202 44.116H93.4624V46.0572H91.7141V46.6778H93.4624L93.5052 52.2247H94.2202V46.6778H96.0065V46.0572H94.2202V44.116Z" fill="white"/>
<path d="M108.527 45.9658C107.903 45.6651 107.131 45.5136 106.218 45.5136C104.698 45.5136 103.617 45.9105 102.983 46.7043V43.2693H102.216V52.2248H102.983V48.5516C102.983 47.7506 103.328 47.1348 104.014 46.7043C104.603 46.3314 105.344 46.1486 106.233 46.1486C106.978 46.1486 107.598 46.2737 108.083 46.519C108.701 46.8366 109.007 47.3128 109.007 47.9479V52.2248H109.777V47.8252C109.777 46.9905 109.361 46.3699 108.525 45.9658" fill="white"/>
<path d="M135.421 51.1279C134.742 51.544 133.925 51.7509 132.965 51.7509C132.006 51.7509 131.162 51.5344 130.526 51.1038C129.813 50.6131 129.457 49.9131 129.457 49.0159C129.457 48.1186 129.813 47.4187 130.526 46.9135C131.169 46.4661 131.979 46.24 132.965 46.24C133.951 46.24 134.82 46.4372 135.457 46.8365C136.231 47.3104 136.616 48.0369 136.616 49.0159C136.616 49.9227 136.217 50.6275 135.419 51.1279H135.421ZM136.616 47.0073C135.894 46.0836 134.704 45.6194 133.046 45.6194C131.844 45.6194 130.853 45.8816 130.072 46.4108C129.167 47.0194 128.716 47.8853 128.716 49.0135C128.716 50.1416 129.169 50.9811 130.086 51.5897C130.858 52.1069 131.825 52.3667 132.979 52.3667C134.642 52.3667 135.854 51.8856 136.619 50.9258V52.232H137.388V45.641H136.619V47.0025L136.616 47.0073Z" fill="white"/>
<path d="M145.134 46.9975V45.7684H144.367V52.2294H145.134V49.6387C145.134 48.5731 145.446 47.7408 146.068 47.1419C146.693 46.5453 147.629 46.2422 148.88 46.2422V45.624C147.802 45.624 146.887 45.8092 146.139 46.1917C145.705 46.4106 145.37 46.6776 145.134 46.9975Z" fill="white"/>
<path d="M154.334 48.6212C154.448 47.8274 154.874 47.2188 155.615 46.7955C156.258 46.425 157.042 46.2422 157.973 46.2422C158.905 46.2422 159.631 46.413 160.259 46.757C161.031 47.1804 161.449 47.7986 161.51 48.6212H154.337H154.334ZM162.358 48.7655C162.358 47.6759 161.876 46.8508 160.907 46.2951C160.126 45.8453 159.147 45.624 157.973 45.624C156.8 45.624 155.809 45.8814 154.999 46.401C154.042 47.0168 153.565 47.8876 153.565 49.0181C153.565 50.1487 154.004 51.0627 154.881 51.6449C155.629 52.1308 156.627 52.3737 157.881 52.3737C158.786 52.3737 159.572 52.251 160.242 52.0033C160.933 51.7483 161.463 51.3177 161.843 50.726H160.95C160.335 51.4067 159.33 51.7507 157.921 51.7507C155.627 51.7507 154.425 50.9112 154.32 49.2418L162.356 49.2274V48.7655H162.358Z" fill="white"/>
<path d="M55.9073 48.6212C56.0166 47.8274 56.4465 47.2188 57.1853 46.7955C57.829 46.425 58.6153 46.2422 59.5464 46.2422C60.4776 46.2422 61.2045 46.413 61.8268 46.757C62.6036 47.1804 63.0193 47.7986 63.081 48.6212H55.9073ZM62.4824 46.2951C61.6985 45.8453 60.7223 45.624 59.5464 45.624C58.3706 45.624 57.3801 45.8814 56.5748 46.401C55.6175 47.0168 55.1377 47.89 55.1377 49.0181C55.1377 50.1463 55.5771 51.0627 56.456 51.6449C57.2019 52.1308 58.2043 52.3737 59.4538 52.3737C60.3612 52.3737 61.1474 52.251 61.8173 52.0033C62.5062 51.7507 63.0359 51.3177 63.4183 50.726H62.5276C61.91 51.4067 60.9028 51.7507 59.4942 51.7507C57.1995 51.7507 56 50.9136 55.8931 49.2418L63.929 49.2274V48.7655C63.929 47.6759 63.4468 46.8508 62.48 46.2951" fill="white"/>
<path d="M117.335 46.9038C118.019 46.466 118.905 46.2447 119.981 46.2447C121.421 46.2447 122.383 46.668 122.865 47.5123H123.689C123.397 46.8099 122.891 46.3048 122.148 46.0065C121.53 45.7515 120.82 45.6265 120.022 45.6265C118.744 45.6265 117.691 45.8863 116.865 46.4034C115.881 47.024 115.392 47.9261 115.392 49.1144C115.392 50.2329 115.874 51.0796 116.841 51.6641C117.632 52.138 118.627 52.3786 119.829 52.3786C120.699 52.3786 121.473 52.2439 122.15 51.9696C122.867 51.6714 123.373 51.1975 123.687 50.56H122.834C122.597 50.9209 122.255 51.2071 121.796 51.3995C121.224 51.6377 120.563 51.7555 119.815 51.7555C118.822 51.7555 118.005 51.5727 117.361 51.1999C116.551 50.7429 116.147 50.0453 116.147 49.1144C116.147 48.1835 116.544 47.4089 117.338 46.9062" fill="white"/>
</g>
<defs>
<clipPath id="clip0_870_1745">
<rect width="225" height="65" fill="white"/>
</clipPath>
</defs>
</svg>
